<mxfile host="app.diagrams.net" agent="Mozilla/5.0 (Windows NT 10.0; Win64; x64) AppleWebKit/537.36 (KHTML, like Gecko) Chrome/139.0.0.0 Safari/537.36" version="28.1.1">
  <diagram name="第 1 页" id="UdlSb-uu1OFWNxeFyUQN">
    <mxGraphModel dx="825" dy="1617" grid="1" gridSize="10" guides="1" tooltips="1" connect="1" arrows="1" fold="1" page="1" pageScale="1" pageWidth="827" pageHeight="1169" math="0" shadow="0">
      <root>
        <mxCell id="0" />
        <mxCell id="1" parent="0" />
        <mxCell id="FlMOEJ2ym1-_CEcWV6qL-2" value="webview UI" style="rounded=0;whiteSpace=wrap;html=1;" parent="1" vertex="1">
          <mxGeometry x="49" y="140" width="120" height="60" as="geometry" />
        </mxCell>
        <mxCell id="FlMOEJ2ym1-_CEcWV6qL-3" value="src/core&lt;span style=&quot;background-color: transparent; color: light-dark(rgb(0, 0, 0), rgb(255, 255, 255));&quot;&gt;/webview(handler)&lt;/span&gt;" style="rounded=0;whiteSpace=wrap;html=1;" parent="1" vertex="1">
          <mxGeometry x="259" y="140" width="120" height="60" as="geometry" />
        </mxCell>
        <mxCell id="FlMOEJ2ym1-_CEcWV6qL-4" value="src/core/webview(clineProvider)" style="rounded=0;whiteSpace=wrap;html=1;" parent="1" vertex="1">
          <mxGeometry x="560" y="140" width="120" height="60" as="geometry" />
        </mxCell>
        <mxCell id="FlMOEJ2ym1-_CEcWV6qL-5" value="src/core/task" style="rounded=0;whiteSpace=wrap;html=1;" parent="1" vertex="1">
          <mxGeometry x="827" y="140" width="120" height="60" as="geometry" />
        </mxCell>
        <mxCell id="FlMOEJ2ym1-_CEcWV6qL-10" value="App.tsx&lt;div&gt;App&lt;/div&gt;" style="rounded=1;whiteSpace=wrap;html=1;" parent="1" vertex="1">
          <mxGeometry x="59" y="250" width="110" height="50" as="geometry" />
        </mxCell>
        <mxCell id="FlMOEJ2ym1-_CEcWV6qL-11" value="ChatView.tsx&lt;div&gt;ChatView&lt;/div&gt;" style="rounded=1;whiteSpace=wrap;html=1;" parent="1" vertex="1">
          <mxGeometry x="59" y="330" width="110" height="50" as="geometry" />
        </mxCell>
        <mxCell id="FlMOEJ2ym1-_CEcWV6qL-12" value="ChatView.tsx&lt;div&gt;&lt;div style=&quot;background-color: rgb(255, 255, 255); font-family: Consolas, &amp;quot;Courier New&amp;quot;, monospace; font-size: 16px; line-height: 22px; white-space: pre;&quot;&gt;&lt;span style=&quot;color: #222222;&quot;&gt;handleSendMessage&lt;/span&gt;&lt;/div&gt;&lt;/div&gt;" style="rounded=1;whiteSpace=wrap;html=1;" parent="1" vertex="1">
          <mxGeometry x="59" y="430" width="110" height="50" as="geometry" />
        </mxCell>
        <mxCell id="FlMOEJ2ym1-_CEcWV6qL-14" value="ChatView.tsx&lt;div&gt;&lt;div style=&quot;background-color: rgb(255, 255, 255); font-family: Consolas, &amp;quot;Courier New&amp;quot;, monospace; font-size: 16px; line-height: 22px; white-space: pre;&quot;&gt;&lt;span style=&quot;color: #222222;&quot;&gt;handleSendMessage&lt;/span&gt;&lt;/div&gt;&lt;/div&gt;" style="rounded=1;whiteSpace=wrap;html=1;" parent="1" vertex="1">
          <mxGeometry x="59" y="520" width="110" height="90" as="geometry" />
        </mxCell>
        <mxCell id="FlMOEJ2ym1-_CEcWV6qL-15" value="vscode.tsx&lt;div&gt;&lt;div style=&quot;background-color: rgb(255, 255, 255); font-family: Consolas, &amp;quot;Courier New&amp;quot;, monospace; font-size: 16px; line-height: 22px; white-space: pre;&quot;&gt;&lt;font color=&quot;#222222&quot;&gt;postMessage&lt;/font&gt;&lt;/div&gt;&lt;/div&gt;" style="rounded=1;whiteSpace=wrap;html=1;" parent="1" vertex="1">
          <mxGeometry x="59" y="640" width="110" height="90" as="geometry" />
        </mxCell>
        <mxCell id="FlMOEJ2ym1-_CEcWV6qL-16" value=".&lt;span style=&quot;color: rgb(25, 27, 31); font-family: Menlo, Monaco, Consolas, &amp;quot;Andale Mono&amp;quot;, &amp;quot;lucida console&amp;quot;, &amp;quot;Courier New&amp;quot;, monospace; font-size: 14.4px; text-align: start; background-color: rgb(248, 248, 250);&quot;&gt;webviewMessageHandler.ts&lt;/span&gt;&lt;div&gt;&lt;div style=&quot;background-color: rgb(255, 255, 255); font-family: Consolas, &amp;quot;Courier New&amp;quot;, monospace; font-size: 16px; line-height: 22px; white-space: pre;&quot;&gt;&lt;span style=&quot;color: rgb(121, 94, 38);&quot;&gt;webviewMessageHandler&lt;/span&gt;&lt;/div&gt;&lt;/div&gt;" style="rounded=1;whiteSpace=wrap;html=1;" parent="1" vertex="1">
          <mxGeometry x="259" y="250" width="110" height="50" as="geometry" />
        </mxCell>
        <mxCell id="FlMOEJ2ym1-_CEcWV6qL-17" value=".&lt;span style=&quot;color: rgb(25, 27, 31); font-family: Menlo, Monaco, Consolas, &amp;quot;Andale Mono&amp;quot;, &amp;quot;lucida console&amp;quot;, &amp;quot;Courier New&amp;quot;, monospace; font-size: 14.4px; text-align: start; background-color: rgb(248, 248, 250);&quot;&gt;&lt;span style=&quot;color: rgb(0, 0, 0); font-family: Helvetica; font-size: 12px; text-align: center; background-color: rgb(236, 236, 236);&quot;&gt;clineProvider&lt;/span&gt;.ts&lt;/span&gt;&lt;div&gt;&lt;div style=&quot;background-color: rgb(255, 255, 255); font-family: Consolas, &amp;quot;Courier New&amp;quot;, monospace; font-size: 16px; line-height: 22px; white-space: pre;&quot;&gt;&lt;div style=&quot;font-size: 12px; line-height: 16px;&quot;&gt;&lt;span style=&quot;color: #795e26;&quot;&gt;createTask&lt;/span&gt;&lt;/div&gt;&lt;/div&gt;&lt;/div&gt;" style="rounded=1;whiteSpace=wrap;html=1;" parent="1" vertex="1">
          <mxGeometry x="565" y="220" width="110" height="50" as="geometry" />
        </mxCell>
        <mxCell id="vNA8YWekhGHnuqV49X9y-1" value=".&lt;span style=&quot;color: rgb(25, 27, 31); font-family: Menlo, Monaco, Consolas, &amp;quot;Andale Mono&amp;quot;, &amp;quot;lucida console&amp;quot;, &amp;quot;Courier New&amp;quot;, monospace; font-size: 14.4px; text-align: start; background-color: rgb(248, 248, 250);&quot;&gt;&lt;span style=&quot;color: rgb(0, 0, 0); font-family: Helvetica; font-size: 12px; text-align: center; background-color: rgb(236, 236, 236);&quot;&gt;clineProvider&lt;/span&gt;.ts&lt;/span&gt;&lt;div&gt;&lt;div style=&quot;background-color: rgb(255, 255, 255); font-family: Consolas, &amp;quot;Courier New&amp;quot;, monospace; font-size: 16px; line-height: 22px; white-space: pre;&quot;&gt;&lt;/div&gt;&lt;/div&gt;&lt;div style=&quot;text-align: center;&quot;&gt;&lt;span style=&quot;color: light-dark(rgb(121, 94, 38), rgb(176, 153, 105)); background-color: light-dark(rgb(255, 255, 255), rgb(18, 18, 18)); font-family: Consolas, &amp;quot;Courier New&amp;quot;, monospace; white-space: pre;&quot;&gt;new Task()&lt;/span&gt;&lt;/div&gt;" style="rounded=1;whiteSpace=wrap;html=1;" vertex="1" parent="1">
          <mxGeometry x="565" y="300" width="110" height="50" as="geometry" />
        </mxCell>
        <mxCell id="vNA8YWekhGHnuqV49X9y-2" value="&lt;div style=&quot;text-align: center;&quot;&gt;.&lt;span style=&quot;color: rgb(25, 27, 31); font-family: Menlo, Monaco, Consolas, &amp;quot;Andale Mono&amp;quot;, &amp;quot;lucida console&amp;quot;, &amp;quot;Courier New&amp;quot;, monospace; font-size: 14.4px; text-align: start; background-color: rgb(248, 248, 250);&quot;&gt;&lt;span style=&quot;color: rgb(0, 0, 0); font-family: Helvetica; font-size: 12px; text-align: center; background-color: rgb(236, 236, 236);&quot;&gt;clineProvider&lt;/span&gt;.ts&lt;/span&gt;&lt;div&gt;&lt;div style=&quot;background-color: rgb(255, 255, 255); font-family: Consolas, &amp;quot;Courier New&amp;quot;, monospace; font-size: 16px; line-height: 22px; white-space: pre;&quot;&gt;&lt;div style=&quot;font-size: 12px; line-height: 16px;&quot;&gt;&lt;div style=&quot;font-size: 16px; line-height: 22px;&quot;&gt;&lt;span style=&quot;color: #795e26;&quot;&gt;addClineToStack&lt;/span&gt;&lt;/div&gt;&lt;/div&gt;&lt;/div&gt;&lt;/div&gt;&lt;/div&gt;" style="rounded=1;whiteSpace=wrap;html=1;" vertex="1" parent="1">
          <mxGeometry x="565" y="380" width="110" height="50" as="geometry" />
        </mxCell>
        <mxCell id="vNA8YWekhGHnuqV49X9y-6" value="&lt;div style=&quot;text-align: center;&quot;&gt;&lt;span style=&quot;text-align: start; background-color: rgb(236, 236, 236);&quot;&gt;Task&lt;/span&gt;&lt;span style=&quot;background-color: light-dark(rgb(248, 248, 250), rgb(24, 24, 26)); color: light-dark(rgb(25, 27, 31), rgb(212, 214, 218)); font-family: Menlo, Monaco, Consolas, &amp;quot;Andale Mono&amp;quot;, &amp;quot;lucida console&amp;quot;, &amp;quot;Courier New&amp;quot;, monospace; font-size: 14.4px; text-align: start;&quot;&gt;.ts&lt;/span&gt;&lt;/div&gt;&lt;div&gt;&lt;div style=&quot;background-color: rgb(255, 255, 255); font-family: Consolas, &amp;quot;Courier New&amp;quot;, monospace; font-size: 16px; line-height: 22px; white-space: pre;&quot;&gt;&lt;div style=&quot;font-size: 12px; line-height: 16px;&quot;&gt;&lt;span style=&quot;color: rgb(121, 94, 38);&quot;&gt;new Task()&lt;/span&gt;&lt;/div&gt;&lt;/div&gt;&lt;/div&gt;" style="rounded=1;whiteSpace=wrap;html=1;" vertex="1" parent="1">
          <mxGeometry x="832" y="210" width="110" height="50" as="geometry" />
        </mxCell>
        <mxCell id="vNA8YWekhGHnuqV49X9y-7" value="&lt;div style=&quot;text-align: center;&quot;&gt;&lt;span style=&quot;text-align: start; background-color: rgb(236, 236, 236);&quot;&gt;Task&lt;/span&gt;&lt;span style=&quot;background-color: light-dark(rgb(248, 248, 250), rgb(24, 24, 26)); color: light-dark(rgb(25, 27, 31), rgb(212, 214, 218)); font-family: Menlo, Monaco, Consolas, &amp;quot;Andale Mono&amp;quot;, &amp;quot;lucida console&amp;quot;, &amp;quot;Courier New&amp;quot;, monospace; font-size: 14.4px; text-align: start;&quot;&gt;.ts&lt;/span&gt;&lt;/div&gt;&lt;div&gt;&lt;div style=&quot;background-color: rgb(255, 255, 255); font-family: Consolas, &amp;quot;Courier New&amp;quot;, monospace; font-size: 16px; line-height: 22px; white-space: pre;&quot;&gt;&lt;div style=&quot;font-size: 12px; line-height: 16px;&quot;&gt;&lt;span style=&quot;color: rgb(121, 94, 38);&quot;&gt;startTask()&lt;/span&gt;&lt;/div&gt;&lt;/div&gt;&lt;/div&gt;" style="rounded=1;whiteSpace=wrap;html=1;" vertex="1" parent="1">
          <mxGeometry x="832" y="300" width="110" height="50" as="geometry" />
        </mxCell>
        <mxCell id="vNA8YWekhGHnuqV49X9y-8" value="&lt;div style=&quot;text-align: center;&quot;&gt;&lt;span style=&quot;text-align: start; background-color: rgb(236, 236, 236);&quot;&gt;Task&lt;/span&gt;&lt;span style=&quot;background-color: light-dark(rgb(248, 248, 250), rgb(24, 24, 26)); color: light-dark(rgb(25, 27, 31), rgb(212, 214, 218)); font-family: Menlo, Monaco, Consolas, &amp;quot;Andale Mono&amp;quot;, &amp;quot;lucida console&amp;quot;, &amp;quot;Courier New&amp;quot;, monospace; font-size: 14.4px; text-align: start;&quot;&gt;.ts&lt;/span&gt;&lt;/div&gt;&lt;div&gt;&lt;div style=&quot;background-color: rgb(255, 255, 255); font-family: Consolas, &amp;quot;Courier New&amp;quot;, monospace; font-size: 16px; line-height: 22px; white-space: pre;&quot;&gt;&lt;div style=&quot;font-size: 12px; line-height: 16px;&quot;&gt;&lt;span style=&quot;color: rgb(121, 94, 38);&quot;&gt;&lt;span style=&quot;background-color: light-dark(rgb(255, 255, 255), rgb(18, 18, 18)); font-size: 16px;&quot;&gt;initiateTaskLoop&lt;/span&gt;()循环执行任务&lt;/span&gt;&lt;/div&gt;&lt;/div&gt;&lt;/div&gt;" style="rounded=1;whiteSpace=wrap;html=1;" vertex="1" parent="1">
          <mxGeometry x="832" y="380" width="110" height="50" as="geometry" />
        </mxCell>
        <mxCell id="vNA8YWekhGHnuqV49X9y-9" value="&lt;div style=&quot;text-align: center;&quot;&gt;&lt;span style=&quot;text-align: start; background-color: rgb(236, 236, 236);&quot;&gt;Task&lt;/span&gt;&lt;span style=&quot;background-color: light-dark(rgb(248, 248, 250), rgb(24, 24, 26)); color: light-dark(rgb(25, 27, 31), rgb(212, 214, 218)); font-family: Menlo, Monaco, Consolas, &amp;quot;Andale Mono&amp;quot;, &amp;quot;lucida console&amp;quot;, &amp;quot;Courier New&amp;quot;, monospace; font-size: 14.4px; text-align: start;&quot;&gt;.ts&lt;/span&gt;&lt;/div&gt;&lt;div&gt;&lt;div style=&quot;background-color: rgb(255, 255, 255); font-family: Consolas, &amp;quot;Courier New&amp;quot;, monospace; font-size: 16px; line-height: 22px; white-space: pre;&quot;&gt;&lt;div style=&quot;font-size: 12px; line-height: 16px;&quot;&gt;&lt;span style=&quot;color: rgb(121, 94, 38);&quot;&gt;&lt;span style=&quot;background-color: light-dark(rgb(255, 255, 255), rgb(18, 18, 18)); font-size: 16px;&quot;&gt;recursivelyMakeClineRequests&lt;/span&gt;()&lt;/span&gt;&lt;span style=&quot;color: rgb(25, 27, 31); font-family: -apple-system, BlinkMacSystemFont, &amp;quot;Helvetica Neue&amp;quot;, &amp;quot;PingFang SC&amp;quot;, &amp;quot;Microsoft YaHei&amp;quot;, &amp;quot;Source Han Sans SC&amp;quot;, &amp;quot;Noto Sans CJK SC&amp;quot;, &amp;quot;WenQuanYi Micro Hei&amp;quot;, &amp;quot;MiSans L3&amp;quot;, sans-serif; font-size: medium; text-align: start; white-space: normal; background-color: light-dark(rgb(255, 255, 255), rgb(18, 18, 18));&quot;&gt;递归处理API请求，&lt;/span&gt;&lt;span style=&quot;color: rgb(25, 27, 31); font-family: -apple-system, BlinkMacSystemFont, &amp;quot;Helvetica Neue&amp;quot;, &amp;quot;PingFang SC&amp;quot;, &amp;quot;Microsoft YaHei&amp;quot;, &amp;quot;Source Han Sans SC&amp;quot;, &amp;quot;Noto Sans CJK SC&amp;quot;, &amp;quot;WenQuanYi Micro Hei&amp;quot;, &amp;quot;MiSans L3&amp;quot;, sans-serif; font-size: medium; text-align: start; white-space: normal; background-color: light-dark(rgb(255, 255, 255), rgb(18, 18, 18));&quot;&gt;包括构建上下文、发送请求和处理响应&lt;/span&gt;&lt;/div&gt;&lt;/div&gt;&lt;/div&gt;" style="rounded=1;whiteSpace=wrap;html=1;" vertex="1" parent="1">
          <mxGeometry x="827" y="460" width="110" height="50" as="geometry" />
        </mxCell>
        <mxCell id="vNA8YWekhGHnuqV49X9y-10" value="&lt;div&gt;前置检查&lt;/div&gt;1、检查中断状态&lt;div&gt;2、错误发生的次数&lt;/div&gt;&lt;div&gt;3、任务暂停检查（等待子任务完成）&lt;/div&gt;" style="rounded=1;whiteSpace=wrap;html=1;" vertex="1" parent="1">
          <mxGeometry x="1070" y="170" width="120" height="60" as="geometry" />
        </mxCell>
        <mxCell id="vNA8YWekhGHnuqV49X9y-11" value="&lt;h4 style=&quot;scrollbar-color: var(--vscode-scrollbarSlider-background,#424242) var(--vscode-editor-background,#1e1e1e); font-size: 1.05em; line-height: 1.25; margin-bottom: 8px; margin-top: 16px; font-family: &amp;quot;Segoe WPC&amp;quot;, &amp;quot;Segoe UI&amp;quot;, &amp;quot;Microsoft YaHei&amp;quot;, sans-serif; text-align: start; background-color: rgb(243, 243, 243);&quot;&gt;请求准备阶段&lt;/h4&gt;&lt;div&gt;1、内容处理&lt;/div&gt;&lt;div&gt;2、用户消息保存到对话历史&lt;/div&gt;" style="rounded=1;whiteSpace=wrap;html=1;" vertex="1" parent="1">
          <mxGeometry x="1070" y="260" width="130" height="60" as="geometry" />
        </mxCell>
        <mxCell id="vNA8YWekhGHnuqV49X9y-12" value="&lt;div&gt;&lt;span style=&quot;background-color: transparent; color: light-dark(rgb(0, 0, 0), rgb(255, 255, 255));&quot;&gt;流式处理&lt;/span&gt;&lt;/div&gt;&lt;div&gt;&lt;span style=&quot;background-color: transparent; color: light-dark(rgb(0, 0, 0), rgb(255, 255, 255));&quot;&gt;1、状态重置&lt;/span&gt;&lt;/div&gt;&lt;div&gt;2、发起API请求&lt;/div&gt;&lt;div&gt;3、流式返回处理&lt;/div&gt;&lt;div&gt;4、中断处理&lt;/div&gt;" style="rounded=1;whiteSpace=wrap;html=1;" vertex="1" parent="1">
          <mxGeometry x="1070" y="360" width="120" height="60" as="geometry" />
        </mxCell>
        <mxCell id="vNA8YWekhGHnuqV49X9y-13" value="&lt;div&gt;&lt;span style=&quot;background-color: transparent; color: light-dark(rgb(0, 0, 0), rgb(255, 255, 255));&quot;&gt;后台使用数据收集&lt;/span&gt;&lt;/div&gt;" style="rounded=1;whiteSpace=wrap;html=1;" vertex="1" parent="1">
          <mxGeometry x="1070" y="450" width="120" height="60" as="geometry" />
        </mxCell>
        <mxCell id="vNA8YWekhGHnuqV49X9y-14" value="&lt;div style=&quot;background-color: rgb(255, 255, 255); font-family: Consolas, &amp;quot;Courier New&amp;quot;, monospace; font-size: 16px; line-height: 22px; white-space: pre;&quot;&gt;&lt;span style=&quot;color: #795e26;&quot;&gt;attemptApiRequest发送API请求&lt;/span&gt;&lt;/div&gt;" style="rounded=1;whiteSpace=wrap;html=1;" vertex="1" parent="1">
          <mxGeometry x="1310" y="160" width="120" height="60" as="geometry" />
        </mxCell>
        <mxCell id="vNA8YWekhGHnuqV49X9y-15" value="错误处理" style="rounded=1;whiteSpace=wrap;html=1;" vertex="1" parent="1">
          <mxGeometry x="1070" y="535" width="120" height="60" as="geometry" />
        </mxCell>
        <mxCell id="vNA8YWekhGHnuqV49X9y-16" value="后处理阶段&lt;div&gt;1、内容完成处理&lt;/div&gt;&lt;div&gt;2、响应处理&lt;/div&gt;" style="rounded=1;whiteSpace=wrap;html=1;" vertex="1" parent="1">
          <mxGeometry x="1070" y="630" width="120" height="60" as="geometry" />
        </mxCell>
        <mxCell id="vNA8YWekhGHnuqV49X9y-17" value="初始化阶段&lt;div&gt;1、创建栈结构&lt;/div&gt;" style="rounded=1;whiteSpace=wrap;html=1;" vertex="1" parent="1">
          <mxGeometry x="1060" y="80" width="120" height="60" as="geometry" />
        </mxCell>
        <mxCell id="vNA8YWekhGHnuqV49X9y-30" style="edgeStyle=orthogonalEdgeStyle;rounded=0;orthogonalLoop=1;jettySize=auto;html=1;exitX=1;exitY=0.5;exitDx=0;exitDy=0;entryX=0;entryY=0.5;entryDx=0;entryDy=0;" edge="1" parent="1" source="vNA8YWekhGHnuqV49X9y-18" target="vNA8YWekhGHnuqV49X9y-19">
          <mxGeometry relative="1" as="geometry">
            <Array as="points">
              <mxPoint x="1510" y="370" />
              <mxPoint x="1510" y="260" />
            </Array>
          </mxGeometry>
        </mxCell>
        <mxCell id="vNA8YWekhGHnuqV49X9y-18" value="&lt;div style=&quot;background-color: rgb(255, 255, 255); font-family: Consolas, &amp;quot;Courier New&amp;quot;, monospace; font-size: 16px; line-height: 22px; white-space: pre;&quot;&gt;&lt;div style=&quot;line-height: 22px;&quot;&gt;&lt;span style=&quot;color: #795e26;&quot;&gt;getSystemPrompt&lt;/span&gt;&lt;/div&gt;&lt;/div&gt;" style="rounded=1;whiteSpace=wrap;html=1;" vertex="1" parent="1">
          <mxGeometry x="1320" y="340" width="120" height="60" as="geometry" />
        </mxCell>
        <mxCell id="vNA8YWekhGHnuqV49X9y-19" value="&lt;div style=&quot;background-color: rgb(255, 255, 255); font-family: Consolas, &amp;quot;Courier New&amp;quot;, monospace; font-size: 16px; line-height: 22px; white-space: pre;&quot;&gt;&lt;div style=&quot;line-height: 22px;&quot;&gt;&lt;font color=&quot;#795e26&quot;&gt;等待&lt;span style=&quot;color: rgb(0, 16, 128); background-color: light-dark(rgb(255, 255, 255), rgb(18, 18, 18));&quot;&gt;mcpHub&lt;/span&gt;&lt;br&gt;&lt;/font&gt;&lt;span style=&quot;color: light-dark(rgb(121, 94, 38), rgb(176, 153, 105)); background-color: light-dark(rgb(255, 255, 255), rgb(18, 18, 18));&quot;&gt;初始化连接&lt;/span&gt;&lt;/div&gt;&lt;/div&gt;" style="rounded=1;whiteSpace=wrap;html=1;" vertex="1" parent="1">
          <mxGeometry x="1550" y="230" width="120" height="60" as="geometry" />
        </mxCell>
        <mxCell id="vNA8YWekhGHnuqV49X9y-21" value="&lt;div style=&quot;background-color: rgb(255, 255, 255); font-family: Consolas, &amp;quot;Courier New&amp;quot;, monospace; font-size: 16px; line-height: 22px; white-space: pre;&quot;&gt;&lt;div style=&quot;line-height: 22px;&quot;&gt;&lt;div style=&quot;line-height: 22px;&quot;&gt;&lt;span style=&quot;color: #795e26;&quot;&gt;SYSTEM_PROMPT（）&lt;/span&gt;&lt;/div&gt;&lt;/div&gt;&lt;/div&gt;" style="rounded=1;whiteSpace=wrap;html=1;" vertex="1" parent="1">
          <mxGeometry x="1560" y="420" width="120" height="60" as="geometry" />
        </mxCell>
        <mxCell id="vNA8YWekhGHnuqV49X9y-28" value="" style="edgeStyle=orthogonalEdgeStyle;rounded=0;orthogonalLoop=1;jettySize=auto;html=1;" edge="1" parent="1" source="vNA8YWekhGHnuqV49X9y-22" target="vNA8YWekhGHnuqV49X9y-21">
          <mxGeometry relative="1" as="geometry" />
        </mxCell>
        <mxCell id="vNA8YWekhGHnuqV49X9y-22" value="&lt;div style=&quot;background-color: rgb(255, 255, 255); font-family: Consolas, &amp;quot;Courier New&amp;quot;, monospace; font-size: 16px; line-height: 22px; white-space: pre;&quot;&gt;&lt;div style=&quot;line-height: 22px;&quot;&gt;&lt;div style=&quot;line-height: 22px;&quot;&gt;&lt;span style=&quot;color: rgb(0, 128, 0);&quot;&gt;获取.rooignore file&lt;/span&gt;&lt;/div&gt;&lt;div style=&quot;line-height: 22px;&quot;&gt;&lt;span style=&quot;color: rgb(0, 128, 0);&quot;&gt;格式化提示词&lt;/span&gt;&lt;/div&gt;&lt;/div&gt;&lt;/div&gt;" style="rounded=1;whiteSpace=wrap;html=1;" vertex="1" parent="1">
          <mxGeometry x="1560" y="320" width="120" height="60" as="geometry" />
        </mxCell>
        <mxCell id="vNA8YWekhGHnuqV49X9y-36" style="edgeStyle=orthogonalEdgeStyle;rounded=0;orthogonalLoop=1;jettySize=auto;html=1;exitX=0.5;exitY=1;exitDx=0;exitDy=0;entryX=0.5;entryY=0;entryDx=0;entryDy=0;" edge="1" parent="1" source="vNA8YWekhGHnuqV49X9y-23" target="vNA8YWekhGHnuqV49X9y-33">
          <mxGeometry relative="1" as="geometry" />
        </mxCell>
        <mxCell id="vNA8YWekhGHnuqV49X9y-23" value="&lt;div style=&quot;background-color: rgb(255, 255, 255); font-family: Consolas, &amp;quot;Courier New&amp;quot;, monospace; font-size: 16px; line-height: 22px; white-space: pre;&quot;&gt;&lt;div style=&quot;line-height: 22px;&quot;&gt;&lt;div style=&quot;line-height: 22px;&quot;&gt;system.ts&lt;/div&gt;&lt;div style=&quot;line-height: 22px;&quot;&gt;&lt;span style=&quot;color: rgb(121, 94, 38);&quot;&gt;SYSTEM_PROMPT&lt;/span&gt;&lt;/div&gt;&lt;/div&gt;&lt;/div&gt;" style="rounded=1;whiteSpace=wrap;html=1;" vertex="1" parent="1">
          <mxGeometry x="1780" y="140" width="120" height="60" as="geometry" />
        </mxCell>
        <mxCell id="vNA8YWekhGHnuqV49X9y-27" value="" style="endArrow=classic;html=1;rounded=0;exitX=0.5;exitY=1;exitDx=0;exitDy=0;entryX=0.425;entryY=0.05;entryDx=0;entryDy=0;entryPerimeter=0;" edge="1" parent="1" source="vNA8YWekhGHnuqV49X9y-19" target="vNA8YWekhGHnuqV49X9y-22">
          <mxGeometry width="50" height="50" relative="1" as="geometry">
            <mxPoint x="1790" y="510" as="sourcePoint" />
            <mxPoint x="1840" y="460" as="targetPoint" />
          </mxGeometry>
        </mxCell>
        <mxCell id="vNA8YWekhGHnuqV49X9y-29" style="edgeStyle=orthogonalEdgeStyle;rounded=0;orthogonalLoop=1;jettySize=auto;html=1;exitX=1;exitY=0.25;exitDx=0;exitDy=0;entryX=-0.008;entryY=0.617;entryDx=0;entryDy=0;entryPerimeter=0;" edge="1" parent="1" source="vNA8YWekhGHnuqV49X9y-21" target="vNA8YWekhGHnuqV49X9y-23">
          <mxGeometry relative="1" as="geometry" />
        </mxCell>
        <mxCell id="vNA8YWekhGHnuqV49X9y-32" value="src/core/prompt" style="rounded=0;whiteSpace=wrap;html=1;" vertex="1" parent="1">
          <mxGeometry x="1880" y="40" width="120" height="60" as="geometry" />
        </mxCell>
        <mxCell id="vNA8YWekhGHnuqV49X9y-37" style="edgeStyle=orthogonalEdgeStyle;rounded=0;orthogonalLoop=1;jettySize=auto;html=1;exitX=0.5;exitY=1;exitDx=0;exitDy=0;entryX=0.5;entryY=0;entryDx=0;entryDy=0;" edge="1" parent="1" source="vNA8YWekhGHnuqV49X9y-33" target="vNA8YWekhGHnuqV49X9y-34">
          <mxGeometry relative="1" as="geometry" />
        </mxCell>
        <mxCell id="vNA8YWekhGHnuqV49X9y-33" value="&lt;div style=&quot;background-color: rgb(255, 255, 255); font-family: Consolas, &amp;quot;Courier New&amp;quot;, monospace; font-size: 16px; line-height: 22px; white-space: pre;&quot;&gt;&lt;div style=&quot;line-height: 22px;&quot;&gt;&lt;div style=&quot;line-height: 22px;&quot;&gt;&lt;div style=&quot;line-height: 22px;&quot;&gt;&lt;span style=&quot;color: rgb(121, 94, 38);&quot;&gt;getPromptComponent &lt;/span&gt;&lt;/div&gt;&lt;div style=&quot;line-height: 22px;&quot;&gt;&lt;span style=&quot;color: rgb(121, 94, 38);&quot;&gt;检查是否为自定义的模式&lt;/span&gt;&lt;/div&gt;&lt;/div&gt;&lt;/div&gt;&lt;/div&gt;" style="rounded=1;whiteSpace=wrap;html=1;" vertex="1" parent="1">
          <mxGeometry x="1780" y="220" width="120" height="60" as="geometry" />
        </mxCell>
        <mxCell id="vNA8YWekhGHnuqV49X9y-38" style="edgeStyle=orthogonalEdgeStyle;rounded=0;orthogonalLoop=1;jettySize=auto;html=1;exitX=0.5;exitY=1;exitDx=0;exitDy=0;entryX=0.5;entryY=0;entryDx=0;entryDy=0;" edge="1" parent="1" source="vNA8YWekhGHnuqV49X9y-34" target="vNA8YWekhGHnuqV49X9y-35">
          <mxGeometry relative="1" as="geometry" />
        </mxCell>
        <mxCell id="vNA8YWekhGHnuqV49X9y-34" value="&lt;div style=&quot;background-color: rgb(255, 255, 255); font-family: Consolas, &amp;quot;Courier New&amp;quot;, monospace; font-size: 16px; line-height: 22px; white-space: pre;&quot;&gt;&lt;div style=&quot;line-height: 22px;&quot;&gt;&lt;div style=&quot;line-height: 22px;&quot;&gt;&lt;div style=&quot;line-height: 22px;&quot;&gt;&lt;div style=&quot;line-height: 22px;&quot;&gt;&lt;span style=&quot;color: rgb(121, 94, 38);&quot;&gt;getModeBySlug&lt;/span&gt;&lt;/div&gt;&lt;/div&gt;&lt;div style=&quot;line-height: 22px;&quot;&gt;相比内置模式，确定&lt;/div&gt;&lt;div style=&quot;line-height: 22px;&quot;&gt;最终的模式配置&lt;/div&gt;&lt;/div&gt;&lt;/div&gt;&lt;/div&gt;" style="rounded=1;whiteSpace=wrap;html=1;" vertex="1" parent="1">
          <mxGeometry x="1780" y="300" width="120" height="60" as="geometry" />
        </mxCell>
        <mxCell id="vNA8YWekhGHnuqV49X9y-35" value="&lt;div style=&quot;background-color: rgb(255, 255, 255); font-family: Consolas, &amp;quot;Courier New&amp;quot;, monospace; font-size: 16px; line-height: 22px; white-space: pre;&quot;&gt;&lt;div style=&quot;line-height: 22px;&quot;&gt;&lt;div style=&quot;line-height: 22px;&quot;&gt;&lt;div style=&quot;line-height: 22px;&quot;&gt;&lt;div style=&quot;line-height: 22px;&quot;&gt;&lt;div style=&quot;line-height: 22px;&quot;&gt;&lt;span style=&quot;color: rgb(121, 94, 38);&quot;&gt;generatePrompt&lt;/span&gt;&lt;/div&gt;&lt;div style=&quot;line-height: 22px;&quot;&gt;&lt;span style=&quot;color: rgb(121, 94, 38);&quot;&gt;构造完整的提示词&lt;/span&gt;&lt;/div&gt;&lt;/div&gt;&lt;/div&gt;&lt;/div&gt;&lt;/div&gt;&lt;/div&gt;" style="rounded=1;whiteSpace=wrap;html=1;" vertex="1" parent="1">
          <mxGeometry x="1780" y="390" width="120" height="60" as="geometry" />
        </mxCell>
        <mxCell id="vNA8YWekhGHnuqV49X9y-39" value="&lt;div style=&quot;background-color: rgb(255, 255, 255); font-family: Consolas, &amp;quot;Courier New&amp;quot;, monospace; font-size: 16px; line-height: 22px; white-space: pre;&quot;&gt;&lt;div style=&quot;line-height: 22px;&quot;&gt;&lt;div style=&quot;line-height: 22px;&quot;&gt;system.ts&lt;/div&gt;&lt;div style=&quot;line-height: 22px;&quot;&gt;&lt;span style=&quot;color: rgb(121, 94, 38);&quot;&gt;SYSTEM_PROMPT&lt;/span&gt;&lt;/div&gt;&lt;/div&gt;&lt;/div&gt;" style="rounded=1;whiteSpace=wrap;html=1;" vertex="1" parent="1">
          <mxGeometry x="1980" y="140" width="120" height="60" as="geometry" />
        </mxCell>
        <mxCell id="vNA8YWekhGHnuqV49X9y-53" value="1.&lt;span style=&quot;color: rgb(34, 34, 34); background-color: rgb(255, 255, 255); font-family: Consolas, &amp;quot;Courier New&amp;quot;, monospace; font-size: 16px; white-space: pre;&quot;&gt;basePrompt&lt;/span&gt;&lt;div&gt;&lt;span style=&quot;color: rgb(34, 34, 34); background-color: rgb(255, 255, 255); font-family: Consolas, &amp;quot;Courier New&amp;quot;, monospace; font-size: 16px; white-space: pre;&quot;&gt;2.&lt;/span&gt;&lt;span style=&quot;color: rgb(121, 94, 38); background-color: rgb(255, 255, 255); font-family: Consolas, &amp;quot;Courier New&amp;quot;, monospace; font-size: 16px; white-space: pre;&quot;&gt;markdownFormattingSection&lt;/span&gt;&lt;/div&gt;&lt;div&gt;&lt;span style=&quot;color: rgb(121, 94, 38); background-color: rgb(255, 255, 255); font-family: Consolas, &amp;quot;Courier New&amp;quot;, monospace; font-size: 16px; white-space: pre;&quot;&gt;3.&lt;/span&gt;&lt;span style=&quot;color: rgb(121, 94, 38); background-color: rgb(255, 255, 255); font-family: Consolas, &amp;quot;Courier New&amp;quot;, monospace; white-space: pre;&quot;&gt;getSharedToolUseSection&lt;/span&gt;&lt;/div&gt;&lt;div&gt;&lt;span style=&quot;color: rgb(121, 94, 38); background-color: rgb(255, 255, 255); font-family: Consolas, &amp;quot;Courier New&amp;quot;, monospace; white-space: pre;&quot;&gt;4.&lt;/span&gt;&lt;span style=&quot;color: rgb(121, 94, 38); background-color: rgb(255, 255, 255); font-family: Consolas, &amp;quot;Courier New&amp;quot;, monospace; white-space: pre;&quot;&gt;getSharedToolUseSection&lt;/span&gt;&lt;/div&gt;&lt;div&gt;&lt;span style=&quot;color: rgb(121, 94, 38); background-color: rgb(255, 255, 255); font-family: Consolas, &amp;quot;Courier New&amp;quot;, monospace; white-space: pre;&quot;&gt;5.&lt;/span&gt;&lt;span style=&quot;color: rgb(121, 94, 38); background-color: rgb(255, 255, 255); font-family: Consolas, &amp;quot;Courier New&amp;quot;, monospace; white-space: pre;&quot;&gt;getToolUseGuidelinesSection&lt;/span&gt;&lt;/div&gt;&lt;div&gt;&lt;span style=&quot;color: rgb(121, 94, 38); background-color: rgb(255, 255, 255); font-family: Consolas, &amp;quot;Courier New&amp;quot;, monospace; white-space: pre;&quot;&gt;6.&lt;/span&gt;&lt;span style=&quot;color: rgb(121, 94, 38); background-color: rgb(255, 255, 255); font-family: Consolas, &amp;quot;Courier New&amp;quot;, monospace; white-space: pre;&quot;&gt;getCapabilitiesSection&lt;/span&gt;&lt;/div&gt;&lt;div&gt;&lt;span style=&quot;color: rgb(121, 94, 38); background-color: rgb(255, 255, 255); font-family: Consolas, &amp;quot;Courier New&amp;quot;, monospace; white-space: pre;&quot;&gt;7.&lt;/span&gt;&lt;span style=&quot;color: rgb(121, 94, 38); background-color: rgb(255, 255, 255); font-family: Consolas, &amp;quot;Courier New&amp;quot;, monospace; white-space: pre;&quot;&gt;getRulesSection&lt;/span&gt;&lt;/div&gt;&lt;div&gt;&lt;span style=&quot;color: rgb(121, 94, 38); background-color: rgb(255, 255, 255); font-family: Consolas, &amp;quot;Courier New&amp;quot;, monospace; white-space: pre;&quot;&gt;8.&lt;/span&gt;&lt;span style=&quot;color: rgb(121, 94, 38); background-color: rgb(255, 255, 255); font-family: Consolas, &amp;quot;Courier New&amp;quot;, monospace; white-space: pre;&quot;&gt;getSystemInfoSection&lt;/span&gt;&lt;/div&gt;&lt;div&gt;&lt;span style=&quot;color: rgb(121, 94, 38); background-color: rgb(255, 255, 255); font-family: Consolas, &amp;quot;Courier New&amp;quot;, monospace; white-space: pre;&quot;&gt;9.&lt;/span&gt;&lt;span style=&quot;color: rgb(121, 94, 38); background-color: rgb(255, 255, 255); font-family: Consolas, &amp;quot;Courier New&amp;quot;, monospace; white-space: pre;&quot;&gt;getObjectiveSection&lt;/span&gt;&lt;/div&gt;&lt;div&gt;&lt;span style=&quot;color: rgb(121, 94, 38); background-color: rgb(255, 255, 255); font-family: Consolas, &amp;quot;Courier New&amp;quot;, monospace; white-space: pre;&quot;&gt;10.&lt;/span&gt;&lt;span style=&quot;color: rgb(121, 94, 38); background-color: rgb(255, 255, 255); font-family: Consolas, &amp;quot;Courier New&amp;quot;, monospace; white-space: pre;&quot;&gt;addCustomInstructions&lt;/span&gt;&lt;/div&gt;" style="rounded=1;whiteSpace=wrap;html=1;align=left;" vertex="1" parent="1">
          <mxGeometry x="1960" y="230" width="180" height="280" as="geometry" />
        </mxCell>
        <mxCell id="vNA8YWekhGHnuqV49X9y-54" style="edgeStyle=orthogonalEdgeStyle;rounded=0;orthogonalLoop=1;jettySize=auto;html=1;exitX=0.5;exitY=1;exitDx=0;exitDy=0;entryX=0.428;entryY=0.018;entryDx=0;entryDy=0;entryPerimeter=0;" edge="1" parent="1" source="vNA8YWekhGHnuqV49X9y-39" target="vNA8YWekhGHnuqV49X9y-53">
          <mxGeometry relative="1" as="geometry" />
        </mxCell>
        <mxCell id="vNA8YWekhGHnuqV49X9y-55" style="edgeStyle=orthogonalEdgeStyle;rounded=0;orthogonalLoop=1;jettySize=auto;html=1;exitX=1;exitY=0.5;exitDx=0;exitDy=0;entryX=-0.008;entryY=0.367;entryDx=0;entryDy=0;entryPerimeter=0;" edge="1" parent="1" source="vNA8YWekhGHnuqV49X9y-35" target="vNA8YWekhGHnuqV49X9y-39">
          <mxGeometry relative="1" as="geometry" />
        </mxCell>
        <mxCell id="vNA8YWekhGHnuqV49X9y-56" value="&lt;font color=&quot;#795e26&quot;&gt;上下文截断处理&lt;/font&gt;" style="rounded=1;whiteSpace=wrap;html=1;" vertex="1" parent="1">
          <mxGeometry x="1320" y="560" width="120" height="60" as="geometry" />
        </mxCell>
      </root>
    </mxGraphModel>
  </diagram>
</mxfile>
